<svg version="1" xmlns="http://www.w3.org/2000/svg" width="933.333" height="933.333" viewBox="0 0 700.000000 700.000000"><path d="M89.9 2C75.3 9.7 66 39.7 66 78.8c0 41.6 10.4 84.2 33.1 135.5l4.8 10.9-8.9 11.9c-4.9 6.5-9.4 12.8-10 13.9-1.1 2-1 2.1 1.2 1.5 3.5-1.1 5.6-3.4 10-10.8 3.7-6.1 7.9-10.7 9.8-10.7.4 0 1.5 1.8 2.5 4l1.8 4.1-3 3.2c-8.7 9.3-20.1 26.8-27.4 42.2-9.5 19.8-16.9 44.3-20.5 68-2.6 16.8-2.6 58-.1 74.3 3.2 20 9.2 41.8 16 57.8 1.4 3.3 3.3 9.1 4.2 12.9 1.6 7 8 20.5 9.7 20.5.6 0 .8-1.6.4-3.8-.3-2-.8-11.8-1.1-21.7-.5-13.9-.3-19.2.8-23.5 1.5-5.5 1.5-5.4 1.6 10.1.4 59.4 17.7 105 49.2 130.2 10.2 8.2 17.5 12 20.1 10.6 1.5-.8 1.9-1.8 1.5-3.7-1.1-5.8-3.9-14.8-8.6-26.9-8.8-23.2-9.1-23.4 12.7 11.2 17.5 27.7 23.8 43.7 26.1 66.3.9 8.5.8 9.4-2 18.2-1.6 5.1-2.8 9.7-2.6 10.3.6 1.9 17.8-21.3 23.7-32.1 1.3-2.3 2.7-4.2 3-4.2.7 0 1.1 4.6 2.6 30.3l.7 10.7h19.5l.6-8.8c.3-4.8.8-19.4 1.2-32.4.6-21.3.5-23.8-1-24.4-.9-.3-1.6-1.2-1.6-1.9 0-1 1.7-.7 6.3 1.2 8.7 3.5 17.6 6.2 26.4 7.9 13.8 2.6 18.3 1.5 18.3-4.5 0-4-2.3-5.6-14.6-10.1-53-19.5-90.2-55.5-102.9-99.5-4.2-14.6-7-35.5-4.7-35.5.4 0 4.8.9 9.8 2 4.9 1.1 10.2 2 11.8 2 2.4 0 2.7.2 1.6 1.5-2 2.4-.4 6.1 3.3 7.9 3.7 1.7 26.4 4.3 29.1 3.3 2.7-1.1 2.1-6.4-1-8-2.4-1.3-1.5-1.5 10.2-2 28-1.2 44.9-9.5 59.6-29.1 3.5-4.7 10.5-16.5 15.7-26.3 10.6-20.1 17.7-31.4 24.8-39.1 4.3-4.8 5.4-5.4 10.5-6.2 9.3-1.5 11.9-.6 18.7 6.4 7.4 7.8 12.5 15.6 24.1 37.6 5.1 9.6 11.5 20.8 14.2 24.7 7.4 10.7 17.2 19.4 27 24.2 13.5 6.5 19.2 7.5 43 7.6 13.5 0 19.8.3 18 .9-1.5.5-3.3 1.3-4 1.9-1.8 1.4-1.5 6.6.4 7.4 2.7 1 25.4-1.6 29.1-3.3 1.9-1 3.6-2.6 3.9-4 .7-2.7-1-5.4-3.3-5.4-3.2 0 0-1.8 4.2-2.5 5.2-.7 18.1-4.5 23.8-6.8l3.7-1.6v3c0 7.1-2.3 23.2-4.6 32.7-7 28.6-22.2 52.9-44.9 72-10.5 8.9-25.9 19.2-28.6 19.2-1 0-2.2.7-2.6 1.5-1 1.8-16.5 9.1-29.8 13.9-5.5 2.1-10.8 4.6-11.7 5.8-3.9 4.5-.9 9.8 5.4 9.8 5.2 0 18.6-2.7 26.9-5.4l7.1-2.3-.6 9.1c-.8 11.8-2.6 47-2.6 51.8v3.8h12v-68.6l4.8-2.3c7.5-3.7 23.2-14.3 29.7-20.2 16.6-15 27.7-29.2 36.8-47.5 10.7-21.3 15.6-41.5 16.4-67.6l.6-16.7 3.8-2.7c7.3-5 17.2-16.6 21.6-25 5.5-10.5 7.1-17.5 8.3-36.4.9-14.2 1.3-16 4.1-21.7 1.9-3.9 4.8-7.8 7.9-10.5 4.3-3.8 5.1-5.1 6.4-10.8 1-4.2 1.6-11.5 1.6-20.8v-14.3l-4.2-4.5c-6.9-7.3-15.7-10.6-34-12.5-5.6-.5-10.4-1.2-10.5-1.3-.7-.6 4-14.1 8.3-24.2 2.5-5.9 10.9-24.3 18.6-40.8 29-62.3 37.7-85.7 44.7-120.4 4.3-21.1 5.4-32.3 5.4-52.7 0-34.5-6.1-58.8-17.8-71.4C616 1.2 611.9-.4 604 .2c-12.6.9-23 9.2-45.9 36.8-30.8 37-44.7 58.1-76.6 116.5-8.7 15.9-16.7 30.3-17.6 31.9l-1.7 2.9-3.2-6.4c-11.5-22.9-32.1-42.7-60.1-57.8-13.5-7.3-47.1-17-73.4-21.1-16.6-2.7-47.3-3.7-61-2.1-19.8 2.3-38.4 7.5-52.4 14.5L205 119l-1.3-2.2c-.8-1.3-3.6-5.9-6.2-10.3-21.4-35.4-58.3-82.8-75.1-96.5C110.5.3 98.6-2.6 89.9 2zm22.9 19.9c4.1 2.2 10.6 8.6 23.7 23.6 20.1 22.9 36.1 46.2 47.6 68.8l7 13.8-2.8 2.2c-1.5 1.1-5.9 5.2-9.8 9-7 6.9-7 6.9-3.5 6.3 1.9-.4 7-2.5 11.4-4.7 7.5-3.9 8-4 9.3-2.3.7 1 1.3 2.3 1.3 2.8 0 .6-3.7 2.4-8.3 3.9-4.5 1.6-12.1 4.7-17 6.9-4.8 2.3-8.9 3.9-9.1 3.7-.3-.4-7.3-17.9-18.9-47.4-4.1-10.5-9.1-22.5-11.1-26.8-2-4.3-3.6-8.4-3.6-9.2 0-1.8-3.9-4-5-2.8-2.2 2.3-4.2 12.8-4.7 24.6-.6 13.5.4 22.9 3.8 35.5 1 4 3.2 13.6 4.9 21.3 1.6 7.7 3.6 16.2 4.4 18.8l1.4 4.7-4.9 3.4c-7.4 5-7.9 6.1-2.3 4.4 8.2-2.4 8.7-2.2 11.1 5l2.1 6.5-5.2 3.4c-2.8 1.9-8.2 6.2-12.1 9.6-3.8 3.3-7.3 6.1-7.7 6.1-.9 0-9.7-22.9-15.1-39.5-12.8-39.4-18.3-75.4-15.9-105.1 1.6-20.6 5.8-37.9 10.4-43.4 4.4-5.3 12-6.5 18.6-3.1zM610 23.8c4.2 4.4 7 12.1 9.7 26.3 2.5 13.5 2.5 51 0 66.4-7.4 44.9-17.3 73.4-51.6 147.8-8.3 18.1-16.7 37.2-18.7 42.6l-3.7 9.9-39.1.5c-59.8.8-70.6 2.7-125.6 22-10.2 3.5-22.5 7.5-27.4 8.7l-8.8 2.2-9.7-2.3-9.6-2.2 8-1.4c46.2-7.9 86.2-33.5 118-75.8 12.7-16.9 17.8-28.8 17.9-41.5.1-6.6.5-8.1 3-12 1.7-2.5 4-7.1 5.3-10.2 1.3-3.1 5.9-12.6 10.3-21 4.3-8.4 12-24.3 17-35.2 23.6-51.5 35.6-70.7 66.7-106.2 16.7-19 21.1-22.4 29.1-22.4 5.1 0 5.8.3 9.2 3.8zm-286.5 97.7c26.2 4.6 49.5 14.6 67.2 28.8 7.2 5.8 18.3 18.3 18.3 20.6 0 2.5-3.3.6-17.1-9.7-26-19.6-37.4-26.1-53.9-31.2-16.4-5-24.9-6.2-49-6.9-22.7-.7-23.9-1.1-9-3.2 8.1-1.1 33.2-.2 43.5 1.6zm10.4 22.1c12.4 4.2 23.1 9.2 23.8 11.2 1.9 4.9-8.1 2.3-23.7-6.1-5.2-2.8-12-5.9-15-6.8l-5.5-1.8h4.9c3.1-.1 8.8 1.2 15.5 3.5zm-6.1 90.7c3.5 4.2-11.7 10.7-26.3 11.3-7.9.3-7.9.3-4-1 2.2-.8 8.7-3.7 14.5-6.4 11.1-5.3 14.1-6 15.8-3.9zM181 240.5c.7.8 1 2.1.7 2.9-.3.8-5.2 4.6-10.9 8.4-28.9 19.4-52.1 42.2-63.7 62.6-2.5 4.4-3.7 5.4-6.3 5.9-1.8.3-4.1.8-5 1.2-2.9 1.2-2.2-1.5 3.5-12.7 15.8-31 39.4-53.6 69-65.9 10.4-4.4 11-4.5 12.7-2.4zm191 5.5c0 1.4-8.3 6.8-15.5 10.1-14.3 6.5-29 9-67.3 11.4-20.8 1.3-29.7 2.4-44.2 5.1-1.4.2-.1-.5 2.8-1.5 7.2-2.7 20.9-5.6 43.1-9.1 23.5-3.7 39.5-6.9 61.3-12.4 19.3-4.9 19.8-5 19.8-3.6zm-229.3 58.7c.2.6-1.6 3.5-4 6.5-4.3 5.3-4.3 5.3-10.5 5.6-3.4.2-6.2-.1-6.2-.6 0-1.7 9-9.3 13.3-11.3 4.5-2 6.8-2.1 7.4-.2zm191.2 16.6c-1.5 1.2-5.9 6.1-9.8 10.9-3.9 4.7-7.8 8.8-8.5 9.1-.8.3-8.7-2.1-17.7-5.3-13.5-4.8-15.7-5.9-13.3-6.3 1.6-.4 9.6-1.8 17.8-3.3 8.2-1.4 19-3.6 24-4.9 5-1.3 9.3-2.3 9.6-2.4.3 0-.7.9-2.1 2.2zm202 23.8l6.3 1.2-.5 13.6c-.6 16.2-1.9 20.7-8.1 26.8-9.2 9-9.9 20.4-2.7 40.8 2.4 6.6 5.4 15.6 6.9 19.9 2.5 7.7 2.5 7.9.6 9.3-5.9 4.3-29 9.3-46.4 9.9l-12.5.5 3.5-2c1.9-1.1 6.9-3.2 11-4.6 10.8-3.6 14-5.8 14-9.4 0-2.7-.5-3.2-4-4.2-8.8-2.6-24.1 3-34.9 12.7l-6 5.5-10.2-2.6c-11.2-2.7-16.9-5.6-22.7-11.3-18.3-18.1-27.5-38.4-27.6-60.8-.1-9.8 0-10.2 4.2-18.7 5.2-10.5 9.7-14.7 19-17.6 12.1-3.8 38.2-8.2 58.7-10.1 12.8-1.1 43.1-.5 51.4 1.1zM232 347.5c14.6 2.4 32.1 6.5 36.1 8.5 7.7 4 16.9 18.4 18.4 28.9 1.4 10.1-4.1 32.3-11.1 44.8-6.9 12.3-24 27.6-35.1 31.2-4.1 1.4-4.2 1.4-8.5-2.3-9.9-8.5-25.6-14-33.8-11.9-3.1.8-3.5 1.3-3.5 4.3s.6 3.7 3.9 5.6c2.2 1.2 6.9 3.2 10.5 4.3 3.6 1.2 7.7 2.8 9.1 3.5 2.3 1.3 2.2 1.4-3.4 2.1-3.2.4-8.8.4-12.5 0-3.6-.4-9.3-.7-12.5-.6-5.7.2-22.4-2.5-23.8-3.8-1.2-1.1 2-13.6 7-27.3 6.2-16.8 7.2-21 7.2-29.6 0-5.7-.5-8-3-12.8l-2.9-5.9 2.6-5c6.7-13 17.5-23 33.8-31.7 8-4.3 8.6-4.3 21.5-2.3zm329.7 8.7c3.7 4 5.6 16 5.6 35.3 0 15.1-.3 18.1-2.6 26.7-1.4 5.4-4.2 12.8-6.2 16.5-3.8 7.2-7.1 12.1-7.7 11.3-.4-.5-5.2-11.6-11.6-27-2.5-6.1-3.7-10.5-4-15.6l-.4-7.1 4.6-4.4c5.7-5.3 11.8-17.1 14.6-28.3 1.1-4.4 2-8.8 2-9.8 0-2.3 2.3-1.3 5.7 2.4zm-478.4 30l-1 6.3-.2-7.5c-.1-5.6.2-7.1 1-6.3.9.9.9 2.9.2 7.5zm57.3 21.2c.3.8-1.2 4.5-3.4 8.3-2.2 3.7-4.9 9-6.2 11.8l-2.2 5-1.4-3c-2.3-5.3-1.8-7.2 5.2-18.3 3.4-5.2 6.8-6.9 8-3.8zm-1.6 35.3v4.6l-2.5-2.3c-2.8-2.6-3.1-4-1.3-5.8 2.5-2.5 3.8-1.3 3.8 3.5zm-19.5 41c.1 15 .1 15.5-1.2 10.8-.8-2.8-1.6-10.6-2-17.5-.5-12-.5-12.4 1.2-10.8 1.6 1.5 1.9 3.8 2 17.5zm12.3-5.5c-.5 1.5-2.3 1.1-2.6-.6-.2-1.1.2-1.4 1.3-1 .9.4 1.4 1.1 1.3 1.6zm58.8 119.4c3.9 5.5 11.2 22 10.1 23-.2.2-1.6-2.7-3.1-6.5-3.1-8-8.6-17.4-12.4-21.4-1.9-2-2.2-2.6-.9-2.1 1 .3 3.8 3.5 6.3 7zm11.6 9.1c4.8 5.3 6.9 9.3 4.9 9.3-.8 0-5.9-6.5-8.5-10.8-1.3-2.2 1-1.2 3.6 1.5z"/><path d="M584.2 70.2c-1.8 2.3-12.9 28.9-22.7 54.3-14.8 38.5-38.8 85-57.7 112-14.5 20.8-24.1 44.5-18 44.5 3 0 18.4-8.3 29.9-16.2 11.3-7.7 28.3-23.3 35.2-32.2 14.3-18.5 25-45.2 32.5-81.1 1.4-6.6 3.6-16.3 5-21.6 5-19.5 5.6-36.5 1.9-52.4-1.9-8.1-3.7-10.2-6.1-7.3zM488.7 368.4c-.3 4.2-.8 8-1.2 8.6-1.2 1.9-5.3-2-6-5.8-.8-4.2-3.2-9.2-4.4-9.2-1 0-2.1 3.5-2.1 6.7 0 2.1-.4 2.3-6 2.3-17.4 0-32.4 14.8-32.5 32 0 10.6 2.8 15 9.4 15 2.5 0 3.6-.8 5.6-4 1.4-2.2 2.7-4 2.9-4 .2 0 4.6-.9 9.7-1.9 5.2-1.1 12.6-2.2 16.4-2.6 6.1-.7 7.4-1.2 10-4 2.5-2.5 4.4-3.4 9.3-4.3 14.5-2.6 24.5-13.1 20.1-21.3-1.3-2.5-3.1-1.5-2.4 1.4 1.4 5.7-9.1 13.7-18 13.7h-4l3.9-2.6c4.8-3.3 8.6-11 8.6-17.7 0-2.6-.4-4.7-.9-4.7-1 0-2.1 2.4-2.1 4.8 0 3.5-4.4 10.4-8.2 12.9-4.9 3.3-6.5 2.2-4.3-3 1.8-4.3 1.9-10.8.2-15.6-2.1-5.9-3.4-4.8-4 3.3zm-9.7 10.8c2.9 3.2 2.7 9.2-.5 12.3-7.4 7.5-18-3.5-11.4-11.9 2.7-3.4 8.8-3.7 11.9-.4zM466 395c1.6 3.1-.4 6.2-3.8 5.8-2.8-.3-4-3.2-2.8-6.4.8-2.1 5.4-1.7 6.6.6zM214.9 363.7c-.6 1.6-1.3 4.6-1.6 6.8-.4 2.6-1.6 5.1-3.6 7.3l-3.1 3.2-1.8-2.9c-1-1.6-2.2-4.8-2.6-7.2-1.1-6.2-3.2-6.3-3.2-.2 0 3.3.8 6.6 2.5 9.8 2.3 4.7 2.5 9.5.4 9.5-2.2 0-9-4.2-10.5-6.5-.9-1.4-1.8-4-1.9-5.8-.4-4.4-.4-4.4-2-2.3-3.9 5.1.5 13.7 9.3 18.4 3.3 1.8 6.3 4.2 7 5.6 1.7 3.8 4.9 5.2 14.7 6.5 5 .7 12.2 1.9 16.2 2.8 6.6 1.4 7.5 2 9.8 5.4 2.1 3.2 3.1 3.9 5.8 3.9 5.5 0 7.9-3.5 8.5-12.3.5-8.8-.7-13.2-5.5-20.4-3.7-5.5-11.2-11.2-17.4-13.2-3.2-1-3.7-1.6-4.2-5.2-.3-2.2-.8-4.3-1.1-4.7-.9-.8-3.5 2.9-4.2 6-.4 1.7-1.3 2.8-2.3 2.8-.9 0-2.6.3-3.8.6-2.2.6-2.3.4-2.3-5 0-6-1.4-7.3-3.1-2.9zM223 379c4.3 4.3 1.3 13-4.5 13-3.3 0-7.5-4.2-7.5-7.5s4.2-7.5 7.5-7.5c1.4 0 3.4.9 4.5 2zm7.9 13.9c1.3 2.4-.8 5.5-3.5 4.9-2-.3-3-2.9-2-5.4.8-2 4.3-1.7 5.5.5zM305.6 493c-5 2-9.9 5.7-9.1 7 .3.4 2.4 1.1 4.7 1.4 9.7 1.5 22.1 9.3 28.9 18.3 3.7 5 4 5.7 4.1 12.5.2 13.2-4.9 24.1-12.9 27.4-4.5 1.9-8.2 1.7-12.8-.6-4.9-2.5-5.5-2.5-5.5-.1 0 3.2 4.8 8 9.3 9.2 8.3 2.2 17-.3 23.9-6.8l3.6-3.5 1.5 2.8c2.2 4.1 7.6 9 11.9 10.8 5.7 2.4 16 2 24.2-.9 7.1-2.5 11.6-5.3 6.5-4.2-1.4.4-5.7.9-9.5 1.3-9.1.8-14.8-.8-19.5-5.4-4.4-4.5-6.8-13.4-7.5-28.7l-.5-10 3.5-4.7c5.2-6.9 16.1-14.2 24.3-16.3 10.6-2.7 10.2-2.3 6.4-5.6-5.1-4.2-12.1-6.3-19.5-5.7-8.5.7-14.8 4.4-19.7 11.5-1.5 2.2-1.5 2.2-7.5-3.5-8.6-8.4-18-10.4-28.8-6.2z"/></svg>
